<svg width="1200" height="280" viewBox="0 0 1200 280" fill="none" xmlns="http://www.w3.org/2000/svg">
  <defs>
    <linearGradient id="bg" x1="0" y1="0" x2="1200" y2="280" gradientUnits="userSpaceOnUse">
      <stop offset="0%" stop-color="#172525"/>
      <stop offset="50%" stop-color="#123636"/>
      <stop offset="100%" stop-color="#016441"/>
    </linearGradient>
    <radialGradient id="glow" cx="600" cy="120" r="400" gradientUnits="userSpaceOnUse">
      <stop offset="0%" stop-color="#03C982" stop-opacity="0.25"/>
      <stop offset="100%" stop-color="#123636" stop-opacity="0"/>
    </radialGradient>
  </defs>

  <!-- Background -->
  <rect width="1200" height="280" fill="url(#bg)"/>
  <rect width="1200" height="280" fill="url(#glow)"/>

  <!-- Ver.iD brand logo (centered, scaled 0.7) -->
  <!-- Original is 528x265. At 0.7: 370x186. Center in 1200x280: x=(1200-370)/2=415, y=(280-186)/2=47 -->
  <g transform="translate(415, 37) scale(0.7)">
    <!-- ID background -->
    <path d="M319.678 14.22C319.678 6.37 325.882 0 333.528 0H440.557C488.846 0 528 40.19 528 89.78V108.45C528 158.03 488.846 198.23 440.557 198.23H333.528C325.882 198.23 319.678 191.86 319.678 184.01V14.22Z" fill="white"/>
    <!-- I -->
    <path d="M347.221 165.36C347.221 167.32 348.77 168.92 350.689 168.92H368.678C370.587 168.92 372.145 167.33 372.145 165.36V75.9398C372.145 73.9798 370.597 72.3798 368.678 72.3798H350.689C348.78 72.3798 347.221 73.9698 347.221 75.9398V165.36V165.36ZM345.468 43.3998C345.468 51.5998 352.091 57.7898 359.678 57.7898C367.266 57.7898 373.694 51.5898 373.694 43.3998C373.694 35.2098 367.071 29.0098 359.678 29.0098C352.286 29.0098 345.468 35.2098 345.468 43.3998Z" fill="#123636"/>
    <!-- D -->
    <path d="M388.634 165.36C388.634 167.32 390.183 168.92 392.092 168.92H436.135C478.775 168.92 500.582 143.73 500.582 98.96C500.582 54.19 478.775 29 436.135 29H392.092C390.183 29 388.634 30.59 388.634 32.56V165.36ZM416.626 145.93C414.717 145.93 413.159 144.34 413.159 142.37V55.53C413.159 53.57 414.707 51.97 416.626 51.97H434.576C464.36 51.97 475.464 66.36 475.464 98.95C475.464 131.54 464.37 145.93 434.576 145.93H416.626Z" fill="#123636"/>
    <!-- V -->
    <path d="M128.186 21.4395H106.184C105.454 21.4395 104.791 21.9195 104.548 22.6295L65.4333 136.799C65.3943 136.919 65.2774 136.999 65.1508 136.999C65.0242 136.999 64.9171 136.919 64.8684 136.799L25.5493 22.6295C25.3058 21.9195 24.6532 21.4395 23.913 21.4395H1.73574C0.528022 21.4395 -0.30959 22.6695 0.109216 23.8395L51.9048 167.269C52.1581 167.969 52.8009 168.429 53.5314 168.429H77.6371C78.3676 168.429 79.0201 167.959 79.2636 167.259L129.813 23.8295C130.222 22.6695 129.384 21.4495 128.186 21.4495V21.4395Z" fill="white"/>
    <!-- E -->
    <path d="M170.262 57.709C154.668 57.709 141.53 63.209 132.248 73.609C123.161 83.799 118.349 98.019 118.349 114.729C118.349 131.439 122.995 145.439 131.78 155.629C140.994 166.309 154.298 171.949 170.262 171.949C182.884 171.949 193.52 168.679 201.896 162.219C209.522 156.339 214.967 148.119 218.074 137.769C218.346 136.869 218.191 135.919 217.645 135.159C217.1 134.399 216.213 133.939 215.288 133.939H198.916C197.65 133.939 196.51 134.779 196.082 136.029C195.039 139.059 192.906 143.429 188.66 147.019C184.004 150.949 177.946 152.939 170.661 152.939C161.876 152.939 154.464 149.749 149.234 143.709C144.539 138.289 141.676 130.589 141.159 122.039C141.159 121.909 141.198 121.789 141.286 121.699C141.383 121.599 141.51 121.539 141.656 121.539H217.226C218.755 121.539 220.012 120.329 220.08 118.799C220.158 117.079 220.158 114.839 220.158 112.659C220.158 96.119 215.678 82.309 207.194 72.729C198.497 62.899 185.728 57.709 170.262 57.709V57.709ZM169.658 76.719C177.479 76.719 184.209 79.269 189.127 84.089C193.9 88.769 196.607 95.199 196.978 102.679C196.978 102.799 196.939 102.909 196.861 102.999C196.773 103.099 196.637 103.149 196.5 103.149H141.744C141.539 103.149 141.422 103.049 141.374 102.979C141.286 102.879 141.247 102.759 141.267 102.639C143.127 86.889 154.279 76.709 169.667 76.709L169.658 76.719Z" fill="white"/>
    <!-- R -->
    <path d="M294.637 54.2797C293.985 54.2697 293.342 54.2497 292.679 54.2297C290.469 54.1697 288.384 54.1097 286.017 54.2997C282.375 54.5097 278.752 55.2297 275.255 56.4197C271.798 57.5597 268.613 59.2097 265.788 61.3297C262.847 63.3497 260.577 65.8097 258.133 68.5797C257.957 68.7797 257.792 68.9797 257.626 69.1697V57.8297C257.626 56.1597 256.311 54.8097 254.685 54.8097H239.433C237.816 54.8097 236.491 56.1597 236.491 57.8297V165.82C236.491 167.49 237.806 168.84 239.433 168.84H257.198C258.824 168.84 260.139 167.49 260.139 165.82V111.31C260.139 107.02 260.568 102.9 261.415 99.0797C262.253 95.2397 263.626 91.7197 265.486 88.6297C267.395 85.5597 270.015 82.9097 273.268 80.7397C276.706 78.4497 280.515 77.0897 284.596 76.6997C288.413 76.3397 291.774 76.2997 294.627 76.2897C296.244 76.2897 297.569 74.9297 297.569 73.2697V57.3097C297.569 55.6697 296.264 54.2997 294.647 54.2697L294.637 54.2797Z" fill="white"/>
    <!-- SDK subtitle -->
    <text x="264" y="250" text-anchor="middle" font-family="'DM Sans', 'Nunito Sans', 'Source Sans 3', system-ui, sans-serif" font-size="48" font-weight="500" fill="white" opacity="0.8">TypeScript SDK</text>
  </g>
</svg>
